<svg id="Capa_1" enable-background="new 0 0 512 512" height="512" viewBox="0 0 512 512" width="512" xmlns="http://www.w3.org/2000/svg"><g id="arrow_x2F_arrow-right"><path id="Fill-6_1_" clip-rule="evenodd" d="m47.496 265.792 189.753 189.753c4.16 4.16 10.923 4.16 15.083 0s4.16-10.923 0-15.083l-174.315-174.314h380.117c5.888 0 10.667-4.779 10.667-10.667 0-5.909-4.779-10.667-10.667-10.667h-379.072l173.269-173.269c4.16-4.16 4.16-10.923 0-15.083-4.181-4.181-10.901-4.16-15.083 0l-189.759 189.739c-.571.543-4.757 4.66-4.246 10.897.403 4.919 3.465 7.956 4.253 8.694z" fill-rule="evenodd"/></g></svg>