<svg id="Capa_1" enable-background="new 0 0 512 512" height="512" viewBox="0 0 512 512" width="512" xmlns="http://www.w3.org/2000/svg"><g id="arrow_x2F_arrow-right"><path id="Fill-6_1_" clip-rule="evenodd" d="m463.966 235.526-189.753-189.753c-4.16-4.16-10.923-4.16-15.083 0s-4.16 10.923 0 15.083l174.315 174.314h-380.117c-5.888 0-10.667 4.779-10.667 10.667 0 5.909 4.779 10.667 10.667 10.667h379.072l-173.269 173.269c-4.16 4.16-4.16 10.923 0 15.083 4.181 4.181 10.901 4.16 15.083 0l189.76-189.739c.571-.543 4.757-4.66 4.246-10.897-.404-4.919-3.465-7.956-4.254-8.694z" fill-rule="evenodd"/></g></svg>