<svg width="0" height="0" class="hidden">
  <symbol id="logo" enable-background="new 0 0 90.79 90.79" xmlns="http://www.w3.org/2000/svg" viewBox="0 0 90.79 90.79">
    <g>
      <g>
        <path d="m88.95 59.016c-3.2-.5-6.6-.7-9.8-.7.4-2 .5-4 .3-6.1-.6-7.2-5.6-12.1-8.5-18.3-3.6-7.6-4.1-16.1-2.1-24.2.4-1.6-1.8-3.2-3-1.7-4.8 5.7-10.3 10.7-16.1 15.3-5.3-1.5-10.9-1.1-15.9 1.1-1.8-6.6-8.1-9.4-13.7-12.8-1.8-1.1-4 .7-3.5 2.7 1 3.8 2.1 7.6 1.8 11.6-.4 4-2.5 7.3-4.6 10.7-3.4 5.6-5.9 11.4-6 18.1v1.4c-1.8-.2-3.6-.3-5.3-.2-3.4.1-3.4 5.5 0 5.3 2-.1 4 0 6 .1.3 1.4.8 2.8 1.3 4.2-2.2.4-4.2.9-5.9 1.4-3.1.9-1.6 5.9 1.3 4.8 2.2-.9 4.4-1.5 6.7-2 3.2 5.2 8.1 9.3 14.2 11.2 12 3.9 24.9 3.2 36.2-2.4 3.7-1.8 7.2-4.3 10-7.4 2.4 1 4.7 2.4 6.7 3.7 2.3 1.5 4.5-2.4 2.1-3.6-2.2-1.1-4.4-2-6.7-2.6 1.5-2 2.7-4.2 3.6-6.5 3.3.3 6.4 1 9.5 1.9 3.3.8 4.6-4.6 1.4-5zm-13.5-1.4c-.1.3-.1.5-.2.8-3.2.1-7.1.4-9.6 2.2-.4.3-.4 1 .1 1.1 2.6.7 5.5.3 8.2.1-.9 2.1-2.2 4.1-3.6 5.8-1.6-.2-3.1-.2-4.8-.3-1.1-.1-1.1 1.6 0 1.7 1 .1 1.9.3 2.9.6-.7.6-1.4 1.2-2.1 1.7-13.5 9.8-38.6 10.6-49.4-2.4 2.1-.1 4.2-.1 6.1-.7.3-.1.6-.6.2-.9-2.3-2-5.6-2.6-9-2.5-.5-1.1-1-2.2-1.4-3.4 2.4.2 4.8.4 7.2.6 1 .1 1.1-1.2.5-1.7-2.5-1.8-5.5-3-8.6-3.7-.1-1-.1-2-.1-3.1 0-3.7.8-7.4 2.4-10.8 1.4-3.2 3.6-5.9 5.2-9 2.6-5 2.8-10.3 2.3-15.7.9.5 1.8.9 2.7 1.4 2.7 1.6 5.1 3.6 7 6-2.6 1.5-4.9 3.5-6.8 6-.5.6.5 1.6 1.1 1.1 8.4-6.4 21-9.2 29.4-1.2 2.2 2.1 5.5-1.3 3.3-3.3-1.5-1.4-3.1-2.5-4.9-3.3 3.6-3 7.1-6.2 10.3-9.6-1.1 9.3 1.6 18.5 7 26.4 3.5 5.1 6 9.8 4.6 16.1z"></path>
        <path d="m57.65 49.216c-2.2-.2-4.3 1.8-3.8 4 .1.3.2.6.4.9 0 .7.4 1.4 1.1 1.8 2.1 1.4 5 0 5.7-2.2.6-2.4-1.2-4.4-3.4-4.5z"></path>
        <path d="m32.05 53.716c.7-2.3-1.1-4.3-3.4-4.5-2.2-.2-4.3 1.8-3.8 4 .1.3.2.6.4.9 0 .7.4 1.4 1.1 1.8 2 1.4 5 0 5.7-2.2z"></path>
        <path d="m51.35 67.516c-1.7 1.5-4.4 1.9-6.2.4-1.7-1.4-1.8-3.4-2-5.4-.2-1.4-2.6-1.7-3.1-.4-.7 1.7-.7 3.5-.1 5.2-1.1 1.4-2.3 2.6-4.3 2.3-1.8-.2-3.1-1.7-4.2-3-.7-.8-2.2-.2-2.2.9.3 6.6 9.4 7.8 13.2 3.5.3.2.6.5.9.6 3.5 2.2 8 1.5 10.8-1.3 2-1.8-.8-4.6-2.8-2.8z"></path>
        <path d="m34.65 40.516c2.9 1.1 6.3.2 9.2.8-1.3 1-2.6 2-3.7 3.2-1.3 1.3.4 3.5 1.9 2.5 2.2-1.4 4.2-3.3 6.1-5 .8-.7.5-2.1-.3-2.6-2.6-1.6-5.5-1.2-8.3-1.3 2.4-1.4 4.7-2.7 7.1-4.1.9-.5.8-2.2-.3-2.3-3.3-.5-7-1-10.2.3-.5.2-.6.9 0 1.1 1.8.4 3.7.5 5.6.7-2.5 1.3-5 2.7-7.4 4-1.3.6-.8 2.3.3 2.7z"></path>
      </g>
    </g>
  </symbol>
  <symbol id="cat" enable-background="new 0 0 512 512" xmlns="http://www.w3.org/2000/svg" viewBox="0 0 512 512">
    <g>
      <g>
        <path d="m382.261 106.419 8.254 23.207c.353.994 1.053 1.781 1.936 2.179l20.619 9.29c2.913 1.312 2.913 5.954 0 7.266l-20.619 9.29c-.883.398-1.582 1.185-1.936 2.179l-8.254 23.208c-1.166 3.279-5.29 3.279-6.456 0l-8.253-23.208c-.353-.994-1.053-1.781-1.936-2.179l-20.619-9.29c-2.913-1.312-2.913-5.954 0-7.266l20.619-9.29c.883-.398 1.582-1.185 1.936-2.179l8.253-23.207c1.166-3.278 5.29-3.278 6.456 0z"></path>
        <path d="m485.248 1.824 6.122 17.215c.262.737.781 1.321 1.436 1.616l15.295 6.891c2.161.974 2.161 4.416 0 5.39l-15.295 6.891c-.655.295-1.174.879-1.436 1.616l-6.122 17.215c-.865 2.432-3.924 2.432-4.789 0l-6.122-17.215c-.262-.737-.781-1.321-1.436-1.616l-15.295-6.891c-2.161-.974-2.161-4.416 0-5.39l15.295-6.891c.655-.295 1.174-.879 1.436-1.616l6.122-17.215c.865-2.432 3.924-2.432 4.789 0z"></path>
        <circle cx="361.576" cy="41.466" r="18.022"></circle>
        <ellipse cx="466.92" cy="150.498" rx="7.774" ry="7.774" transform="matrix(.122 -.993 .993 .122 260.5 595.532)"></ellipse>
      </g>
      <g>
        <path d="m176.553 193.022c-.007 0-.017 0-.025 0-5.253 0-10.073-2.634-12.966-6.827 2.339-2.16 4.186-4.626 5.215-6.135 1.876-2.751 1.167-6.501-1.584-8.377-2.753-1.876-6.503-1.167-8.378 1.584-1.743 2.555-3.368 4.127-4.344 4.863-1.243-.776-3.39-2.575-5.481-5.304-2.026-2.643-5.81-3.143-8.452-1.119-2.642 2.025-3.144 5.809-1.118 8.452.964 1.258 3.201 3.984 6.065 6.325-2.911 4.043-7.649 6.581-12.774 6.586-3.329.003-6.026 2.706-6.022 6.035.004 3.327 2.702 6.022 6.029 6.022h.007c8.67-.009 16.726-4.114 21.906-10.738 5.179 6.607 13.206 10.689 21.898 10.689h.031c3.329-.004 6.026-2.706 6.022-6.035-.004-3.327-2.702-6.021-6.029-6.021z"></path>
        <path d="m87.994 198.825c-.019 0-.036 0-.055 0l-29.016-.258c-3.329-.03-6.004-2.753-5.975-6.082.03-3.33 2.742-5.978 6.083-5.975l29.016.258c3.329.03 6.004 2.753 5.975 6.082-.03 3.311-2.723 5.975-6.028 5.975z"></path>
        <path d="m88.152 220.149c-.019 0-.036 0-.055 0l-29.016-.259c-3.329-.03-6.004-2.753-5.975-6.083.029-3.329 2.758-5.962 6.083-5.975l29.016.259c3.329.03 6.004 2.753 5.975 6.083-.03 3.311-2.723 5.975-6.028 5.975z"></path>
        <path d="m250.398 199.33c-.019 0-.036 0-.055 0l-29.016-.259c-3.329-.03-6.004-2.753-5.975-6.082.029-3.311 2.723-5.975 6.027-5.975h.055l29.016.259c3.329.03 6.004 2.753 5.975 6.082-.029 3.311-2.722 5.975-6.027 5.975z"></path>
        <path d="m250.556 220.654c-.019 0-.036 0-.055 0l-29.016-.258c-3.329-.03-6.004-2.753-5.975-6.082.029-3.311 2.723-5.975 6.028-5.975h.055l29.016.258c3.329.03 6.004 2.753 5.975 6.082-.03 3.311-2.723 5.975-6.028 5.975z"></path>
        <path d="m53.678 90.748c-.513 0-1.001-.04-1.463-.119-4.636-.794-7.818-5.271-9.729-13.688-.054-.237-5.274-23.804 4.181-30.494 9.225-6.527 29.176 5.899 30.022 6.432 7.457 4.698 10.571 8.986 9.799 13.496-.715 4.176-5.52 9.488-14.281 15.789-7.929 5.704-14.15 8.584-18.529 8.584zm.091-34.219c-1.554 4.084-.565 16.712 1.574 21.707 4.76-1.881 14.487-8.79 18.2-12.896-4.207-3.527-15.275-8.812-19.714-8.812-.02.001-.04.001-.06.001zm-3.619-5.161h.01z"></path>
        <path d="m256.986 87.264c-4.205 0-10.347-3.144-18.279-9.363-8.589-6.733-13.197-12.4-13.701-16.843-.529-4.674 2.885-8.978 10.436-13.157.214-.118 21.394-11.695 30.451-4.48 8.843 7.043 2.464 29.668 2.187 30.627-2.434 8.47-5.685 12.655-10.232 13.169-.277.031-.565.047-.862.047zm-19.206-26.656c3.133 4.048 12.479 11.465 17.457 13.888 2.225-5.047 4.225-17.236 2.952-21.446-4.363-.363-16.208 4.112-20.409 7.558zm20.602-7.756h.011z"></path>
        <path d="m505.239 259.681c-13.92-18.541-31.57-30.127-51.043-33.505-17.164-2.977-34.477.597-48.753 10.062-15.168 10.054-25.643 25.578-29.495 43.712-3.989 18.797-.533 38.299 9.994 56.397 4.201 7.222 3.824 10.887 2.686 13.017-13.08-25.985-33.107-52.224-58.63-76.003-12.119-11.29-25.108-21.573-38.52-30.603 12.994-15.789 19.581-33.606 19.559-53.109-.031-27.442-6.948-55.18-20.04-80.497 9.752-32.45 17.983-86.282-7.922-101.059-21.776-12.423-53.087 6.215-71.795 17.351-2.046 1.218-4.417 2.63-6.143 3.592-16.305-5.614-31.115-8.139-47.51-8.139-.059 0-.119 0-.179 0-18.001.021-35.797 3.666-52.959 10.843-2.014-1.159-4.857-2.937-7.297-4.463-18.106-11.323-45.464-28.438-65.913-19.672-14.795 6.341-22.091 21.278-21.685 44.396.313 17.851 5.074 38.65 9.558 55.613-12.103 23.324-18.973 53.081-18.94 82.385.038 34.034 20.254 62.919 58.462 83.531 9.521 5.137 19.411 9.358 29.261 12.776-2.528 14.13-3.805 29.976-3.805 47.514 0 13.767 1.136 26.024 3.495 37.165l16.2 111.502-2.156 6.315c-1.804 5.28-.942 11.141 2.304 15.679s8.514 7.248 14.094 7.248h34.755c1.63 0 3.164-.397 4.525-1.085 1.368.695 2.914 1.085 4.544 1.085h34.756c5.579 0 10.848-2.709 14.094-7.248 3.245-4.538 4.106-10.399 2.304-15.68l-1.709-5.002c5.665 1.145 11.639 2.085 17.891 2.798.038-.048.083-.092.121-.14 1.232 15.164 13.349 25.54 30.324 25.54h76.667c18.629 0 34.109-13.739 36.841-31.616 19.351-14.04 32.191-39.046 32.729-64.258.007-.126.012-.25.018-.376 3.932-1.616 7.777-3.542 11.485-5.772 16.684-10.032 28.83-25.198 34.201-42.706 4.394-14.317 6.362-37.003-9.207-63.771-3.863-6.642-3.16-11.299-.872-12.816 1.739-1.152 6.499 1.609 11.461 8.216 10.814 14.403 31.329 17.324 45.73 6.511 6.977-5.239 11.497-12.88 12.726-21.518 1.234-8.633-.973-17.233-6.212-24.21zm-437.023-3.836c-21.835-11.78-47.871-32.769-47.908-65.869-.031-27.519 6.656-55.295 18.349-76.204l1.999-3.574-1.069-3.952c-4.813-17.808-19.459-71.999-.39-80.171 1.363-.584 2.947-.848 4.701-.848 12.121 0 32.273 12.605 42.637 19.087 11.502 7.193 16.263 10.169 22.453 7.378.909-.41 1.82-.805 2.733-1.191l-.536 30.959c-.096 5.548 4.323 10.124 9.872 10.22.059.001.118.001.178.001 5.467 0 9.948-4.384 10.042-9.873l.656-37.876c4.515-1.039 9.058-1.807 13.623-2.294l1.122 68.423c.09 5.492 4.57 9.883 10.044 9.883.055 0 .112-.001.168-.002 5.549-.091 9.972-4.663 9.882-10.211l-1.124-68.494c4.592.282 9.055.816 13.525 1.625l-.658 37.981c-.096 5.549 4.323 10.124 9.872 10.22.059.001.118.001.178.001 5.467 0 9.947-4.384 10.042-9.873l.571-32.953c.857.299 1.718.605 2.59.924 5.538 2.032 9.421-.279 19.791-6.452 11.957-7.118 39.955-23.785 51.56-17.164 8.379 4.78 11.473 38.113-2.522 81.54l-1.326 4.113 2.073 3.791c12.793 23.386 19.57 49.209 19.599 74.679.02 17.272-6.983 32.997-20.813 46.738-27.671 27.493-78.795 42.165-113.342 42.164-.304 0-.611-.001-.913-.003-21.306-.16-57.046-6.208-87.659-22.723zm317.67 157.791c-.023.28-.043.562-.043.848 0 .184-.007.368-.009.552-.005.083-.007.166-.013.249.003.008.006.016.008.025-.287 20.594-11.259 40.944-27.496 50.841-2.992 1.824-4.818 5.075-4.818 8.579 0 9.47-7.704 17.175-17.174 17.175h-76.667c-4.641 0-10.158-1.346-10.336-7.7.73-1.707 5.066-5.727 11.766-8.28.291-.11.576-.235.856-.372l10.981-5.397c4.274-2.101 6.487-6.914 5.298-11.526-1.487-5.764-6.552-7.41-9.272-8.295-6.188-2.012-10.581-4.195-10.751-14.015-.387-22.501 22.507-37.88 58.327-39.18 5.545-.202 9.877-4.86 9.676-10.406s-4.859-9.881-10.406-9.677c-22.253.808-41.294 6.457-55.064 16.336-14.887 10.68-22.922 26.048-22.625 43.273.196 11.395 4.113 18.816 8.88 23.702-3.394 1.87-6.685 4.161-9.498 6.814-8.518-.761-16.554-1.944-23.89-3.501l10.939-75.453c.796-5.491-3.01-10.589-8.502-11.385-5.484-.796-10.589 3.011-11.385 8.502l-14.013 96.657c-.229 1.575-.079 3.182.436 4.689l1.689 4.946h-21.65l-8.114-96.401c-.465-5.53-5.344-9.632-10.855-9.169-5.529.465-9.635 5.326-9.169 10.855l.001.018c-.005.129-.02.255-.02.385l-.179 94.312h-20.858l1.69-4.946c.514-1.508.663-3.116.435-4.692l-18.911-130.161c-.039-.27-.097-.533-.157-.795-.505-5.393-.767-11.107-.767-17.22 0-15.502 1.027-29.424 3.056-41.758 18.19 4.554 35.263 6.502 48.438 6.602.358.003.711.004 1.072.004 36.676-.001 87.641-14.114 120.228-41.405 13.544 8.827 26.769 19.147 39.278 30.8 42.383 39.485 69.05 87.339 69.594 124.889.005.227-.002.453-.006.681zm105.675-132.573c-.473 3.324-2.213 6.264-4.897 8.28-5.541 4.159-13.434 3.037-17.596-2.507-14.236-18.959-29.292-19.093-38.634-12.898-9.895 6.559-15.803 21.77-5.395 39.668 11.918 20.489 10.584 37.288 7.367 47.773-3.915 12.762-12.917 23.906-25.347 31.379-.95.571-1.914 1.107-2.883 1.626-1.452-8.206-3.757-16.613-6.878-25.129 1.506-1.201 2.994-2.588 4.525-4.217 12.28-13.068 7.589-28.309 1.49-38.794-7.978-13.717-10.643-28.282-7.706-42.119 2.75-12.951 10.187-24.008 20.941-31.137 18.823-12.48 49.581-11.932 72.622 18.76 2.014 2.683 2.864 5.992 2.391 9.315z"></path>
        <path d="m256.07 318.834c-3.329 0-6.029-2.699-6.029-6.029v-12.157c0-3.329 2.699-6.029 6.029-6.029 3.329 0 6.029 2.699 6.029 6.029v12.157c-.001 3.33-2.7 6.029-6.029 6.029z"></path>
        <path d="m314.229 340.685c-3.329 0-6.029-2.699-6.029-6.029v-12.157c0-3.329 2.699-6.029 6.029-6.029 3.329 0 6.028 2.699 6.028 6.029v12.157c0 3.33-2.699 6.029-6.028 6.029z"></path>
        <path d="m283.471 348.4c-3.329 0-6.029-2.699-6.029-6.029v-12.157c0-3.329 2.699-6.029 6.029-6.029 3.329 0 6.029 2.699 6.029 6.029v12.157c-.001 3.33-2.7 6.029-6.029 6.029z"></path>
        <path d="m100.02 154.098c0 7.372-5.977 13.349-13.35 13.349s-13.349-5.977-13.349-13.349c0-7.373 5.977-13.35 13.349-13.35 7.373 0 13.35 5.977 13.35 13.35z"></path>
        <path d="m235.435 154.098c0 7.372-5.977 13.349-13.35 13.349s-13.349-5.977-13.349-13.349c0-7.373 5.977-13.35 13.349-13.35 7.373 0 13.35 5.977 13.35 13.35z"></path>
      </g>
    </g>
  </symbol>
  <symbol xmlnsSvg="http://www.w3.org/2000/svg" xmlns="http://www.w3.org/2000/svg" xmlns:xlink="http://www.w3.org/1999/xlink" version="1.0" xml:space="preserve" viewBox="0 0 128 128" id="spinner">
    <g>
      <circle cx="16" cy="64" r="16" fill="#8c7ae6"></circle>
      <circle cx="16" cy="64" r="14.344" fill="#8c7ae6" transform="rotate(45 64 64)"></circle>
      <circle cx="16" cy="64" r="12.531" fill="#8c7ae6" transform="rotate(90 64 64)"></circle>
      <circle cx="16" cy="64" r="10.75" fill="#8c7ae6" transform="rotate(135 64 64)"></circle>
      <circle cx="16" cy="64" r="10.063" fill="#8c7ae6" transform="rotate(180 64 64)"></circle>
      <circle cx="16" cy="64" r="8.063" fill="#8c7ae6" transform="rotate(225 64 64)"></circle>
      <circle cx="16" cy="64" r="6.438" fill="#8c7ae6" transform="rotate(270 64 64)"></circle>
      <circle cx="16" cy="64" r="5.375" fill="#8c7ae6" transform="rotate(315 64 64)"></circle>
      <animateTransform attributeName="transform" type="rotate" values="0 64 64;315 64 64;270 64 64;225 64 64;180 64 64;135 64 64;90 64 64;45 64 64" calcMode="discrete" dur="720ms" repeatCount="indefinite"></animateTransform>
    </g>
  </symbol>
  <symbol id="sun" enable-background="new 0 0 512 512" xmlns="http://www.w3.org/2000/svg" viewBox="0 0 512 512">
    <g>
      <g>
        <path d="m82.759 440.241c-2.815 0-5.63-1.074-7.778-3.222-4.295-4.296-4.295-11.261 0-15.557l64.965-64.965 15.557 15.557-64.966 64.966c-2.148 2.147-4.963 3.221-7.778 3.221z"></path>
        <path d="m102.875 267.002h-91.875c-6.075 0-11-4.925-11-11s4.925-11 11-11h91.875z"></path>
        <path d="m139.946 155.503-64.966-64.966c-4.295-4.296-4.295-11.261 0-15.557 4.296-4.296 11.26-4.296 15.557 0l64.965 64.966z"></path>
        <path d="m245.015 102.875v-91.293c-.01-.193-.015-.387-.015-.582 0-6.075 4.925-11 11-11 .098 0 .198.001.298.004 5.944.15 10.717 5.016 10.717 10.997v91.875h-22z"></path>
        <path d="m356.498 139.946 64.965-64.966c4.296-4.296 11.261-4.296 15.557 0 4.295 4.296 4.295 11.261 0 15.557l-64.965 64.966z"></path>
        <path d="m501 267.002h-91.875v-22h91.709c6.143-.07 11.166 4.868 11.166 10.998 0 6.075-4.925 11.002-11 11.002z"></path>
        <path d="m429.241 440.241c-2.815 0-5.63-1.074-7.778-3.222l-64.965-64.965 15.557-15.557 64.965 64.965c4.295 4.296 4.295 11.261 0 15.557-2.148 2.148-4.964 3.222-7.779 3.222z"></path>
        <path d="m256.015 512c-6.075 0-11-4.925-11-11v-91.875h22v91.875c0 6.075-4.925 11-11 11z"></path>
      </g>
      <path d="m443.953 321.957-32.627-13.515c5.569-16.474 8.592-34.112 8.592-52.442 0-18.323-3.028-35.95-8.595-52.418l32.637-13.518c5.613-2.325 8.278-8.759 5.953-14.372-2.324-5.612-8.758-8.279-14.372-5.953l-32.644 13.521c-15.932-32.082-42.057-58.245-74.11-74.229l13.623-32.889c2.325-5.613-.34-12.047-5.953-14.372-5.614-2.326-12.048.34-14.372 5.953l-13.598 32.829c-16.546-5.624-34.27-8.677-52.694-8.677-18.28 0-35.869 3.007-52.305 8.547l-13.5-32.591c-2.324-5.612-8.758-8.279-14.372-5.953-5.613 2.325-8.278 8.759-5.953 14.372l13.503 32.598c-32.173 15.944-58.401 42.129-74.398 74.27l-32.315-13.385c-5.613-2.326-12.047.34-14.372 5.953s.34 12.047 5.953 14.372l32.269 13.366c-5.598 16.512-8.635 34.196-8.635 52.576 0 18.387 3.039 36.078 8.642 52.596l-32.269 13.366c-5.613 2.325-8.278 8.759-5.953 14.372 1.754 4.236 5.85 6.793 10.167 6.793 1.402 0 2.829-.27 4.205-.84l32.317-13.386c15.996 32.127 42.213 58.302 74.372 74.243l-13.503 32.598c-2.325 5.613.34 12.047 5.953 14.372 1.376.57 2.802.84 4.205.84 4.316 0 8.413-2.558 10.167-6.793l13.499-32.588c16.44 5.544 34.036 8.553 52.322 8.553 18.43 0 36.16-3.055 52.712-8.683l13.527 32.657c1.754 4.236 5.85 6.793 10.167 6.793 1.402 0 2.829-.27 4.205-.84 5.613-2.325 8.278-8.759 5.953-14.372l-13.552-32.719c32.04-15.982 58.148-42.134 74.077-74.205l32.654 13.526c1.377.57 2.802.84 4.205.84 4.316 0 8.413-2.558 10.167-6.793 2.324-5.614-.341-12.049-5.954-14.373zm-188.161 76.168c-78.368 0-142.125-63.757-142.125-142.125s63.757-142.125 142.125-142.125 142.125 63.757 142.125 142.125-63.756 142.125-142.125 142.125z"></path>
    </g>
  </symbol>
  <symbol id="night" enable-background="new 0 0 512.058 512.058" xmlns="http://www.w3.org/2000/svg" viewBox="0 0 512.058 512.058">
    <g>
      <path d="m209.983 512.057c-30.251 0-60.39-6.621-88.623-19.786-50.837-23.706-89.399-65.79-108.584-118.5-19.185-52.709-16.696-109.735 7.011-160.572 23.706-50.837 65.79-89.4 118.499-108.584 41.841-15.228 86.531-16.84 129.241-4.664 4.634 1.321 7.868 5.503 7.981 10.32s-2.921 9.146-7.487 10.684c-1.166.393-2.331.798-3.496 1.222-77.885 28.349-118.188 114.778-89.839 192.665 13.732 37.73 41.336 67.854 77.726 84.823 36.389 16.969 77.209 18.751 114.938 5.019.001 0 .002 0 .003-.001 1.162-.423 2.315-.861 3.462-1.31 4.484-1.757 9.593-.39 12.602 3.373s3.219 9.045.52 13.035c-24.894 36.783-60.165 64.275-102.003 79.502-23.438 8.529-47.731 12.774-71.951 12.774zm.074-398.18c-21.708 0-43.372 3.812-64.246 11.41-47.188 17.175-84.863 51.698-106.086 97.209-21.222 45.511-23.451 96.563-6.275 143.75 17.175 47.188 51.697 84.863 97.208 106.085 45.512 21.223 96.563 23.452 143.75 6.276 26.83-9.765 50.644-25.163 70.183-45.212-34.217 5.844-69.351 1.187-101.477-13.794-41.716-19.452-73.358-53.985-89.102-97.237-28.859-79.292 4.343-166.303 74.671-207.551-6.199-.623-12.416-.936-18.626-.936z"></path>
      <g>
        <path d="m375.909 169.123c-2.281 0-4.55-.708-6.467-2.101-3.388-2.461-5.084-6.632-4.376-10.758l8.152-47.53-34.531-33.661c-2.999-2.923-4.078-7.294-2.784-11.276s4.736-6.884 8.88-7.486l47.722-6.934 21.342-43.244c1.854-3.755 5.677-6.132 9.864-6.132s8.011 2.377 9.864 6.132l21.342 43.244 47.723 6.934c4.144.602 7.586 3.504 8.88 7.486s.215 8.354-2.784 11.276l-34.531 33.661 8.151 47.53c.708 4.127-.989 8.297-4.376 10.759-3.39 2.461-7.88 2.785-11.585.837l-42.684-22.44-42.684 22.44c-1.61.845-3.367 1.263-5.118 1.263zm47.801-47.132c1.758 0 3.517.421 5.119 1.264l28.074 14.76-5.361-31.262c-.612-3.568.571-7.209 3.164-9.736l22.712-22.14-31.389-4.561c-3.582-.521-6.68-2.771-8.282-6.018l-14.037-28.442-14.037 28.443c-1.603 3.247-4.7 5.497-8.282 6.018l-31.388 4.561 22.712 22.14c2.593 2.527 3.776 6.168 3.164 9.736l-5.362 31.262 28.074-14.759c1.603-.844 3.362-1.266 5.119-1.266z"></path>
        <path d="m269.197 334.438c-2.281 0-4.55-.708-6.467-2.101-3.387-2.461-5.084-6.632-4.376-10.759l6.222-36.276-26.355-25.691c-2.999-2.923-4.078-7.294-2.784-11.276s4.736-6.884 8.88-7.486l36.424-5.293 16.289-33.005c1.854-3.755 5.677-6.132 9.864-6.132s8.011 2.377 9.864 6.132l16.289 33.005 36.424 5.293c4.144.602 7.586 3.504 8.88 7.487 1.294 3.982.215 8.354-2.784 11.276l-26.356 25.691 6.223 36.276c.708 4.127-.988 8.298-4.376 10.759-3.387 2.461-7.878 2.786-11.585.837l-32.578-17.127-32.578 17.127c-1.611.846-3.369 1.263-5.12 1.263zm.339-75.023 14.537 14.17c2.593 2.527 3.776 6.168 3.164 9.736l-3.432 20.009 17.969-9.447c3.205-1.685 7.033-1.685 10.238 0l17.969 9.446-3.433-20.008c-.612-3.568.571-7.209 3.164-9.737l14.537-14.17-20.09-2.919c-3.583-.521-6.68-2.771-8.282-6.018l-8.984-18.205-8.984 18.205c-1.603 3.247-4.699 5.497-8.282 6.018z"></path>
      </g>
    </g>
  </symbol>
  <symbol xmlns="http://www.w3.org/2000/svg" id="check" viewBox="0 0 24 24">
    <path d="M22.319,4.431,8.5,18.249a1,1,0,0,1-1.417,0L1.739,12.9a1,1,0,0,0-1.417,0h0a1,1,0,0,0,0,1.417l5.346,5.345a3.008,3.008,0,0,0,4.25,0L23.736,5.847a1,1,0,0,0,0-1.416h0A1,1,0,0,0,22.319,4.431Z"></path>
  </symbol>
  <symbol xmlns="http://www.w3.org/2000/svg" id="cross" viewBox="0 0 24 24">
    <path d="M23.707.293h0a1,1,0,0,0-1.414,0L12,10.586,1.707.293a1,1,0,0,0-1.414,0h0a1,1,0,0,0,0,1.414L10.586,12,.293,22.293a1,1,0,0,0,0,1.414h0a1,1,0,0,0,1.414,0L12,13.414,22.293,23.707a1,1,0,0,0,1.414,0h0a1,1,0,0,0,0-1.414L13.414,12,23.707,1.707A1,1,0,0,0,23.707.293Z"></path>
  </symbol>
  <symbol xmlns="http://www.w3.org/2000/svg" viewBox="0 0 512 512" id="pawprint">
    <path d="m409.191406 330.753906-4.789062-3.703125c-8.890625-6.871093-14.867188-15.734375-17.3125-25.621093-13.800782-56-62.800782-89.429688-131.089844-89.429688s-117.289062 33.429688-131.089844 89.429688c-2.445312 9.886718-8.421875 18.75-17.3125 25.621093l-4.789062 3.703125c-27.964844 21.488282-50.054688 38.480469-38.703125 88.917969 10.109375 44.941406 47.417969 81.105469 92.84375 89.984375 8.011719 1.566406 16.039062 2.328125 24.007812 2.328125 16.566407 0 32.84375-3.339844 48.003907-9.960937 17.167968-7.5 36.914062-7.5 54.082031 0l.015625.015624c22.4375 9.800782 47.3125 12.394532 72.011718 7.617188 45.410157-8.878906 82.71875-45.042969 92.824219-89.984375 11.351563-50.433594-10.738281-67.429687-38.703125-88.917969zm0 0"></path>
    <path d="m181 150c33.089844 0 60-33.648438 60-75s-26.910156-75-60-75-60 33.648438-60 75 26.910156 75 60 75zm0 0"></path>
    <path d="m331 150c33.089844 0 60-33.648438 60-75s-26.910156-75-60-75-60 33.648438-60 75 26.910156 75 60 75zm0 0"></path>
    <path d="m120 196c0-41.351562-26.910156-75-60-75s-60 33.648438-60 75 26.910156 75 60 75 60-33.648438 60-75zm0 0"></path>
    <path d="m452 121c-33.089844 0-60 33.648438-60 75s26.910156 75 60 75 60-33.648438 60-75-26.910156-75-60-75zm0 0"></path>
  </symbol>
  <symbol version="1.1" id="menu" xmlns="http://www.w3.org/2000/svg" xmlns:xlink="http://www.w3.org/1999/xlink" x="0px" y="0px" xml:space="preserve" viewBox="0 0 58 58">
    <g>
      <rect x="9" y="12" width="40" height="2"></rect>
      <rect x="9" y="28" width="40" height="2"></rect>
      <rect x="9" y="44" width="40" height="2"></rect>
      <path d="M0,0v58h58V0H0z M56,56H2V2h54V56z"></path>
    </g>
    <g></g>
    <g></g>
    <g></g>
    <g></g>
    <g></g>
    <g></g>
    <g></g>
    <g></g>
    <g></g>
    <g></g>
    <g></g>
    <g></g>
    <g></g>
    <g></g>
    <g></g>
  </symbol>
  <symbol xmlns="http://www.w3.org/2000/svg" id="cross" viewBox="0 0 24 24">
    <path d="M23.707.293h0a1,1,0,0,0-1.414,0L12,10.586,1.707.293a1,1,0,0,0-1.414,0h0a1,1,0,0,0,0,1.414L10.586,12,.293,22.293a1,1,0,0,0,0,1.414h0a1,1,0,0,0,1.414,0L12,13.414,22.293,23.707a1,1,0,0,0,1.414,0h0a1,1,0,0,0,0-1.414L13.414,12,23.707,1.707A1,1,0,0,0,23.707.293Z"></path>
  </symbol>
</svg>